<svg width="580" height="508" xmlns="http://www.w3.org/2000/svg" xmlns:xlink="http://www.w3.org/1999/xlink" overflow="hidden"><defs><clipPath id="clip0"><path d="M388 108 968 108 968 616 388 616Z" fill-rule="evenodd" clip-rule="evenodd"/></clipPath></defs><g clip-path="url(#clip0)" transform="translate(-388 -108)"><path d="M617 133.5C617 121.074 627.297 111 640 111 652.703 111 663 121.074 663 133.5 663 145.926 652.703 156 640 156 627.297 156 617 145.926 617 133.5Z" stroke="#000000" stroke-width="4" stroke-miterlimit="8" fill="none" fill-rule="evenodd"/><text font-family="DengXian,DengXian_MSFontService,sans-serif" font-weight="400" font-size="24" transform="translate(632.333 141)">A</text><path d="M466 208.5C466 196.074 476.074 186 488.5 186 500.926 186 511 196.074 511 208.5 511 220.926 500.926 231 488.5 231 476.074 231 466 220.926 466 208.5Z" stroke="#000000" stroke-width="4" stroke-miterlimit="8" fill="none" fill-rule="evenodd"/><text font-family="DengXian,DengXian_MSFontService,sans-serif" font-weight="400" font-size="24" transform="translate(482.133 216)">B</text><path d="M769 208.5C769 196.074 779.074 186 791.5 186 803.926 186 814 196.074 814 208.5 814 220.926 803.926 231 791.5 231 779.074 231 769 220.926 769 208.5Z" stroke="#000000" stroke-width="4" stroke-miterlimit="8" fill="none" fill-rule="evenodd"/><text font-family="DengXian,DengXian_MSFontService,sans-serif" font-weight="400" font-size="24" transform="translate(783.784 216)">C</text><path d="M391 284.5C391 272.074 401.074 262 413.5 262 425.926 262 436 272.074 436 284.5 436 296.926 425.926 307 413.5 307 401.074 307 391 296.926 391 284.5Z" stroke="#000000" stroke-width="4" stroke-miterlimit="8" fill="none" fill-rule="evenodd"/><text font-family="DengXian,DengXian_MSFontService,sans-serif" font-weight="400" font-size="24" transform="translate(404.951 292)">D</text><path d="M542 284.5C542 272.074 552.074 262 564.5 262 576.926 262 587 272.074 587 284.5 587 296.926 576.926 307 564.5 307 552.074 307 542 296.926 542 284.5Z" stroke="#000000" stroke-width="4" stroke-miterlimit="8" fill="none" fill-rule="evenodd"/><text font-family="DengXian,DengXian_MSFontService,sans-serif" font-weight="400" font-size="24" transform="translate(557.985 292)">E</text><path d="M692 284.5C692 272.074 702.297 262 715 262 727.703 262 738 272.074 738 284.5 738 296.926 727.703 307 715 307 702.297 307 692 296.926 692 284.5Z" stroke="#000000" stroke-width="4" stroke-miterlimit="8" fill="none" fill-rule="evenodd"/><text font-family="DengXian,DengXian_MSFontService,sans-serif" font-weight="400" font-size="24" transform="translate(709.622 292)">F</text><path d="M844 284.5C844 272.074 854.074 262 866.5 262 878.926 262 889 272.074 889 284.5 889 296.926 878.926 307 866.5 307 854.074 307 844 296.926 844 284.5Z" stroke="#000000" stroke-width="4" stroke-miterlimit="8" fill="none" fill-rule="evenodd"/><text font-family="DengXian,DengXian_MSFontService,sans-serif" font-weight="400" font-size="24" transform="translate(858.716 292)">G</text><path d="M0 0 151.2 30.2446" stroke="#000000" stroke-width="3" stroke-miterlimit="8" fill="none" fill-rule="evenodd" transform="matrix(-1 -8.74228e-08 -8.74228e-08 1 640.701 156.5)"/><path d="M640.5 156.5 791.701 186.745" stroke="#000000" stroke-width="3" stroke-miterlimit="8" fill="none" fill-rule="evenodd"/><path d="M0 0 75.5989 30.2446" stroke="#000000" stroke-width="3" stroke-miterlimit="8" fill="none" fill-rule="evenodd" transform="matrix(-1 -8.74228e-08 -8.74228e-08 1 489.099 231.5)"/><path d="M489.5 231.5 565.099 261.745" stroke="#000000" stroke-width="3" stroke-miterlimit="8" fill="none" fill-rule="evenodd"/><path d="M0 0 76.1615 30.2446" stroke="#000000" stroke-width="3" stroke-miterlimit="8" fill="none" fill-rule="evenodd" transform="matrix(-1 -8.74228e-08 -8.74228e-08 1 791.661 231.5)"/><path d="M791.5 231.5 867.099 261.745" stroke="#000000" stroke-width="3" stroke-miterlimit="8" fill="none" fill-rule="evenodd"/><path d="M466 360C466 347.297 476.074 337 488.5 337 500.926 337 511 347.297 511 360 511 372.703 500.926 383 488.5 383 476.074 383 466 372.703 466 360Z" stroke="#000000" stroke-width="4" stroke-miterlimit="8" fill="none" fill-rule="evenodd"/><text font-family="DengXian,DengXian_MSFontService,sans-serif" font-weight="400" font-size="24" transform="translate(480.466 368)">H</text><path d="M920 360C920 347.297 930.074 337 942.5 337 954.926 337 965 347.297 965 360 965 372.703 954.926 383 942.5 383 930.074 383 920 372.703 920 360Z" stroke="#000000" stroke-width="4" stroke-miterlimit="8" fill="none" fill-rule="evenodd"/><text font-family="DengXian,DengXian_MSFontService,sans-serif" font-weight="400" font-size="24" transform="translate(938.98 368)">I</text><path d="M391 435.5C391 423.074 401.074 413 413.5 413 425.926 413 436 423.074 436 435.5 436 447.926 425.926 458 413.5 458 401.074 458 391 447.926 391 435.5Z" stroke="#000000" stroke-width="4" stroke-miterlimit="8" fill="none" fill-rule="evenodd"/><text font-family="DengXian,DengXian_MSFontService,sans-serif" font-weight="400" font-size="24" transform="translate(408.784 443)">J</text><path d="M546 435.5C546 423.074 556.074 413 568.5 413 580.926 413 591 423.074 591 435.5 591 447.926 580.926 458 568.5 458 556.074 458 546 447.926 546 435.5Z" stroke="#000000" stroke-width="4" stroke-miterlimit="8" fill="none" fill-rule="evenodd"/><text font-family="DengXian,DengXian_MSFontService,sans-serif" font-weight="400" font-size="24" transform="translate(561.532 443)">K</text><path d="M0 0 75.5989 30.2471" stroke="#000000" stroke-miterlimit="8" fill="none" fill-rule="evenodd" transform="matrix(-1 -8.74228e-08 -8.74228e-08 1 565.099 307.5)"/><path d="M867.5 307.5 943.094 337.747" stroke="#000000" stroke-miterlimit="8" fill="none" fill-rule="evenodd"/><path d="M0 0 75.5989 30.2472" stroke="#000000" stroke-width="3" stroke-miterlimit="8" fill="none" fill-rule="evenodd" transform="matrix(-1 -8.74228e-08 -8.74228e-08 1 489.099 383.5)"/><path d="M489.5 383.5 568.899 413.747" stroke="#000000" stroke-width="3" stroke-miterlimit="8" fill="none" fill-rule="evenodd"/><path d="M466 511.5C466 499.074 476.074 489 488.5 489 500.926 489 511 499.074 511 511.5 511 523.926 500.926 534 488.5 534 476.074 534 466 523.926 466 511.5Z" stroke="#000000" stroke-width="4" stroke-miterlimit="8" fill="none" fill-rule="evenodd"/><text font-family="DengXian,DengXian_MSFontService,sans-serif" font-weight="400" font-size="24" transform="translate(483.383 519)">L</text><path d="M618 511.5C618 499.074 628.074 489 640.5 489 652.926 489 663 499.074 663 511.5 663 523.926 652.926 534 640.5 534 628.074 534 618 523.926 618 511.5Z" stroke="#000000" stroke-width="4" stroke-miterlimit="8" fill="none" fill-rule="evenodd"/><text font-family="DengXian,DengXian_MSFontService,sans-serif" font-weight="400" font-size="24" transform="translate(629.943 519)">M</text><path d="M692 586.5C692 574.074 702.297 564 715 564 727.703 564 738 574.074 738 586.5 738 598.926 727.703 609 715 609 702.297 609 692 598.926 692 586.5Z" stroke="#000000" stroke-width="4" stroke-miterlimit="8" fill="none" fill-rule="evenodd"/><text font-family="DengXian,DengXian_MSFontService,sans-serif" font-weight="400" font-size="24" transform="translate(706.289 594)">N</text><path d="M0 0 79.3991 30.2471" stroke="#000000" stroke-width="3" stroke-miterlimit="8" fill="none" fill-rule="evenodd" transform="matrix(-1 -8.74228e-08 -8.74228e-08 1 568.899 458.5)"/><path d="M568.5 458.5 640.661 488.745" stroke="#000000" stroke-width="3" stroke-miterlimit="8" fill="none" fill-rule="evenodd"/><path d="M640.5 534.5 715.179 564.745" stroke="#000000" stroke-width="3" stroke-miterlimit="8" fill="none" fill-rule="evenodd"/></g></svg>