<svg width="580" height="284" xmlns="http://www.w3.org/2000/svg" xmlns:xlink="http://www.w3.org/1999/xlink" overflow="hidden"><defs><clipPath id="clip0"><path d="M388 108 968 108 968 392 388 392Z" fill-rule="evenodd" clip-rule="evenodd"/></clipPath></defs><g clip-path="url(#clip0)" transform="translate(-388 -108)"><path d="M617 133.5C617 121.074 627.297 111 640 111 652.703 111 663 121.074 663 133.5 663 145.926 652.703 156 640 156 627.297 156 617 145.926 617 133.5Z" stroke="#000000" stroke-width="4" stroke-miterlimit="8" fill="none" fill-rule="evenodd"/><text font-family="DengXian,DengXian_MSFontService,sans-serif" font-weight="400" font-size="24" transform="translate(632.333 141)">A</text><path d="M466 208.5C466 196.074 476.074 186 488.5 186 500.926 186 511 196.074 511 208.5 511 220.926 500.926 231 488.5 231 476.074 231 466 220.926 466 208.5Z" stroke="#000000" stroke-width="4" stroke-miterlimit="8" fill="none" fill-rule="evenodd"/><text font-family="DengXian,DengXian_MSFontService,sans-serif" font-weight="400" font-size="24" transform="translate(482.133 216)">B</text><path d="M769 208.5C769 196.074 779.074 186 791.5 186 803.926 186 814 196.074 814 208.5 814 220.926 803.926 231 791.5 231 779.074 231 769 220.926 769 208.5Z" stroke="#000000" stroke-width="4" stroke-miterlimit="8" fill="none" fill-rule="evenodd"/><text font-family="DengXian,DengXian_MSFontService,sans-serif" font-weight="400" font-size="24" transform="translate(783.784 216)">C</text><path d="M391 284.5C391 272.074 401.074 262 413.5 262 425.926 262 436 272.074 436 284.5 436 296.926 425.926 307 413.5 307 401.074 307 391 296.926 391 284.5Z" stroke="#000000" stroke-width="4" stroke-miterlimit="8" fill="none" fill-rule="evenodd"/><text font-family="DengXian,DengXian_MSFontService,sans-serif" font-weight="400" font-size="24" transform="translate(404.951 292)">D</text><path d="M542 284.5C542 272.074 552.074 262 564.5 262 576.926 262 587 272.074 587 284.5 587 296.926 576.926 307 564.5 307 552.074 307 542 296.926 542 284.5Z" stroke="#000000" stroke-width="4" stroke-miterlimit="8" fill="none" fill-rule="evenodd"/><text font-family="DengXian,DengXian_MSFontService,sans-serif" font-weight="400" font-size="24" transform="translate(558.399 292)">E</text><path d="M844 284.5C844 272.074 854.074 262 866.5 262 878.926 262 889 272.074 889 284.5 889 296.926 878.926 307 866.5 307 854.074 307 844 296.926 844 284.5Z" stroke="#000000" stroke-width="4" stroke-miterlimit="8" fill="none" fill-rule="evenodd"/><text font-family="DengXian,DengXian_MSFontService,sans-serif" font-weight="400" font-size="24" transform="translate(861.05 292)">F</text><path d="M0 0 151.2 30.2446" stroke="#000000" stroke-width="3" stroke-miterlimit="8" fill="none" fill-rule="evenodd" transform="matrix(-1 -8.74228e-08 -8.74228e-08 1 640.701 156.5)"/><path d="M640.5 156.5 791.701 186.745" stroke="#000000" stroke-width="3" stroke-miterlimit="8" fill="none" fill-rule="evenodd"/><path d="M0 0 75.5989 30.2446" stroke="#000000" stroke-width="3" stroke-miterlimit="8" fill="none" fill-rule="evenodd" transform="matrix(-1 -8.74228e-08 -8.74228e-08 1 489.099 231.5)"/><path d="M489.5 231.5 565.099 261.745" stroke="#000000" stroke-width="3" stroke-miterlimit="8" fill="none" fill-rule="evenodd"/><path d="M791.5 231.5 867.099 261.745" stroke="#000000" stroke-width="3" stroke-miterlimit="8" fill="none" fill-rule="evenodd"/><path d="M617 360C617 347.297 627.297 337 640 337 652.703 337 663 347.297 663 360 663 372.703 652.703 383 640 383 627.297 383 617 372.703 617 360Z" stroke="#000000" stroke-width="4" stroke-miterlimit="8" fill="none" fill-rule="evenodd"/><text font-family="DengXian,DengXian_MSFontService,sans-serif" font-weight="400" font-size="24" transform="translate(631.917 368)">G</text><path d="M564.5 307.5 640.102 337.747" stroke="#000000" stroke-width="3" stroke-miterlimit="8" fill="none" fill-rule="evenodd"/><path d="M769 362.5C769 350.074 779.074 340 791.5 340 803.926 340 814 350.074 814 362.5 814 374.926 803.926 385 791.5 385 779.074 385 769 374.926 769 362.5Z" stroke="#000000" stroke-width="4" stroke-miterlimit="8" fill="none" fill-rule="evenodd"/><text font-family="DengXian,DengXian_MSFontService,sans-serif" font-weight="400" font-size="24" transform="translate(782.867 370)">H</text><path d="M0 0 75.5989 32.7762" stroke="#000000" stroke-width="3" stroke-miterlimit="8" fill="none" fill-rule="evenodd" transform="matrix(-1 -8.74228e-08 -8.74228e-08 1 867.099 307.5)"/><path d="M920 362.5C920 350.074 930.074 340 942.5 340 954.926 340 965 350.074 965 362.5 965 374.926 954.926 385 942.5 385 930.074 385 920 374.926 920 362.5Z" stroke="#000000" stroke-width="4" stroke-miterlimit="8" fill="none" fill-rule="evenodd"/><text font-family="DengXian,DengXian_MSFontService,sans-serif" font-weight="400" font-size="24" transform="translate(939.401 370)">I</text><path d="M867.5 307.5 943.102 340.102" stroke="#000000" stroke-width="3" stroke-miterlimit="8" fill="none" fill-rule="evenodd"/></g></svg>